<svg xmlns="http://www.w3.org/2000/svg" width="485.7" height="120" fill="none" aria-label="Uptimizr" viewBox="0 0 485.7 120"><g transform="translate(-8.511 -1.66)scale(.48936)"><defs><linearGradient id="uz-top" x1="54" x2="202" y1="40" y2="124" gradientUnits="userSpaceOnUse"><stop offset="0" stop-color="#F7CE57"/><stop offset="1" stop-color="#EDAE42"/></linearGradient><linearGradient id="uz-left" x1="54" x2="128" y1="82" y2="212" gradientUnits="userSpaceOnUse"><stop offset="0" stop-color="#EC9B3D"/><stop offset="1" stop-color="#D9633A"/></linearGradient><linearGradient id="uz-right" x1="128" x2="202" y1="124" y2="212" gradientUnits="userSpaceOnUse"><stop offset="0" stop-color="#D4513A"/><stop offset="1" stop-color="#A82E26"/></linearGradient><clipPath id="frontfaces"><path d="M83.6 98.8v52.5l44.4 25.2 44.4-25.2V98.8l-14.8 8.4v35.5L128 159.5l-29.6-16.8v-35.5Z"/><path d="m98.4 107.2-14.8-8.4 7.4-4.2 14.8 8.4Zm59.2 0 14.8-8.4-7.4-4.2-14.8 8.4Z"/></clipPath></defs><path fill="url(#uz-top)" d="m128 40 74 42-74 42-74-42Z"/><path fill="url(#uz-left)" d="m54 82 74 42v88l-74-42Z"/><path fill="url(#uz-right)" d="M202 82v88l-74 42v-88Z"/><g clip-path="url(#frontfaces)"><path fill="#71461f" d="M91 94.6v52.5l37 21v-17l-22.2-12.6V103Z"/><path fill="#4c1a14" d="m128 168.1 37-21V94.6l-14.8 8.4v35.5L128 151.1Z"/><path fill="#dc893c" d="m83.6 151.3 44.4 25.2v-8.4l-37-21Z"/><path fill="#bb4030" d="m128 176.5 44.4-25.2-7.4-4.2-37 21Z"/><path fill="#7f4f23" d="M83.6 98.8v52.5l7.4-4.2V94.6Z"/><path fill="#892f23" d="M172.4 151.3V98.8l-7.4-4.2v52.5Z"/><path fill="#bb4030" d="M157.6 142.7 128 159.5v-8.4l22.2-12.6Z"/><path fill="#dc893c" d="m128 159.5-29.6-16.8 7.4-4.2 22.2 12.6Z"/><path fill="#892f23" d="M157.6 107.2v35.5l-7.4-4.2V103Z"/><path fill="#7f4f23" d="M98.4 142.7v-35.5l7.4-4.2v35.5Z"/><path fill="#4c1a14" d="m172.4 98.8-14.8 8.4-7.4-4.2 14.8-8.4Z"/><path fill="#71461f" d="m98.4 107.2-14.8-8.4 7.4-4.2 14.8 8.4Z"/></g></g><path fill="#F4EADF" d="M152.999 91.2q-7.207 0-12.403-2.625t-7.974-7.571-2.778-11.834V30.003h10.294v39.45q0 5.936 3.323 9.234 3.324 3.3 9.538 3.3t9.537-3.3q3.323-3.298 3.323-9.234v-39.45h10.294V69.17q0 6.887-2.77 11.834-2.771 4.946-7.975 7.571t-12.41 2.625m35.042 15.942V47.638h9.638v5.577h1.453q1.517-2.65 4.73-4.714 3.213-2.063 9.15-2.063 5.218 0 9.62 2.543 4.4 2.544 7.065 7.414t2.665 11.768v1.312q0 6.882-2.657 11.76t-7.058 7.421q-4.402 2.544-9.634 2.544-3.977 0-6.696-.96-2.72-.96-4.38-2.472-1.66-1.511-2.634-3.073h-1.452v22.447Zm22.075-24.53q5.417 0 8.911-3.447 3.495-3.446 3.495-9.933v-.827q0-6.486-3.53-9.932t-8.876-3.447q-5.331 0-8.87 3.447-3.537 3.446-3.537 9.932v.827q0 6.487 3.538 9.933 3.538 3.447 8.869 3.447M258.885 90q-4.05 0-6.5-2.457-2.448-2.456-2.448-6.603V55.802h-11.108v-8.164h11.108v-13.62h9.81v13.62h12.166v8.164h-12.167v23.463q0 2.571 2.43 2.571h8.498V90Zm23.094 0V47.638h9.81V90Zm4.905-47.723q-2.734 0-4.62-1.78-1.888-1.782-1.888-4.657 0-2.89 1.887-4.664t4.621-1.773q2.82 0 4.664 1.773t1.844 4.664q0 2.875-1.844 4.656t-4.664 1.78M304.35 90V47.638h9.638v4.778h1.452q1.145-2.173 3.761-3.833t6.996-1.66q4.633 0 7.443 1.854t4.252 4.758h1.453q1.457-2.833 4.19-4.723 2.731-1.89 7.737-1.89 4.002 0 7.209 1.686 3.206 1.687 5.112 5.027t1.906 8.319V90h-9.81V62.68q0-3.68-1.957-5.601-1.957-1.922-5.499-1.922-3.91 0-6.157 2.507t-2.247 7.193V90h-9.81V62.68q0-3.68-1.957-5.601-1.957-1.922-5.5-1.922-3.91 0-6.156 2.507-2.247 2.507-2.247 7.193V90Zm73.282 0V47.638h9.81V90Zm4.904-47.723q-2.734 0-4.62-1.78-1.887-1.782-1.887-4.657 0-2.89 1.887-4.664 1.886-1.773 4.62-1.773 2.82 0 4.664 1.773t1.844 4.664q0 2.875-1.844 4.656t-4.664 1.78M398.37 90V78.163l24.138-21.08v-1.281h-23.28v-8.164h33.953v11.836l-24.153 21.08v1.282h24.839V90Zm46.116 0V47.638h9.639v4.875h1.452q.988-2.617 3.204-3.832 2.215-1.215 5.354-1.215h5.098v8.76h-5.344q-4.219 0-6.906 2.268t-2.687 7.006V90Z"/></svg>