<svg xmlns="http://www.w3.org/2000/svg" width="256" height="256" fill="none" aria-label="Uptimizr logo" viewBox="0 0 256 256"><defs><linearGradient id="uz-top" x1="54" x2="202" y1="40" y2="124" gradientUnits="userSpaceOnUse"><stop offset="0" stop-color="#F7CE57"/><stop offset="1" stop-color="#EDAE42"/></linearGradient><linearGradient id="uz-left" x1="54" x2="128" y1="82" y2="212" gradientUnits="userSpaceOnUse"><stop offset="0" stop-color="#EC9B3D"/><stop offset="1" stop-color="#D9633A"/></linearGradient><linearGradient id="uz-right" x1="128" x2="202" y1="124" y2="212" gradientUnits="userSpaceOnUse"><stop offset="0" stop-color="#D4513A"/><stop offset="1" stop-color="#A82E26"/></linearGradient><clipPath id="frontfaces"><path d="M83.6 98.8v52.5l44.4 25.2 44.4-25.2V98.8l-14.8 8.4v35.5L128 159.5l-29.6-16.8v-35.5Z"/><path d="m98.4 107.2-14.8-8.4 7.4-4.2 14.8 8.4Zm59.2 0 14.8-8.4-7.4-4.2-14.8 8.4Z"/></clipPath></defs><rect width="256" height="256" fill="#161210" rx="56"/><path fill="url(#uz-top)" d="m128 40 74 42-74 42-74-42Z"/><path fill="url(#uz-left)" d="m54 82 74 42v88l-74-42Z"/><path fill="url(#uz-right)" d="M202 82v88l-74 42v-88Z"/><g clip-path="url(#frontfaces)"><path fill="#71461f" d="M91 94.6v52.5l37 21v-17l-22.2-12.6V103Z"/><path fill="#4c1a14" d="m128 168.1 37-21V94.6l-14.8 8.4v35.5L128 151.1Z"/><path fill="#dc893c" d="m83.6 151.3 44.4 25.2v-8.4l-37-21Z"/><path fill="#bb4030" d="m128 176.5 44.4-25.2-7.4-4.2-37 21Z"/><path fill="#7f4f23" d="M83.6 98.8v52.5l7.4-4.2V94.6Z"/><path fill="#892f23" d="M172.4 151.3V98.8l-7.4-4.2v52.5Z"/><path fill="#bb4030" d="M157.6 142.7 128 159.5v-8.4l22.2-12.6Z"/><path fill="#dc893c" d="m128 159.5-29.6-16.8 7.4-4.2 22.2 12.6Z"/><path fill="#892f23" d="M157.6 107.2v35.5l-7.4-4.2V103Z"/><path fill="#7f4f23" d="M98.4 142.7v-35.5l7.4-4.2v35.5Z"/><path fill="#4c1a14" d="m172.4 98.8-14.8 8.4-7.4-4.2 14.8-8.4Z"/><path fill="#71461f" d="m98.4 107.2-14.8-8.4 7.4-4.2 14.8 8.4Z"/></g></svg>