<svg width="485.7" height="120.0" viewBox="0 0 485.7 120.0" fill="none" xmlns="http://www.w3.org/2000/svg" role="img" aria-label="Uptimizr">
  <!-- mark -->
  <g transform="translate(-8.511 -1.660) scale(0.48936)">
  <defs>
    <linearGradient id="uz-top" x1="54" y1="40" x2="202" y2="124" gradientUnits="userSpaceOnUse">
      <stop offset="0" stop-color="#F7CE57"/><stop offset="1" stop-color="#EDAE42"/>
    </linearGradient>
    <linearGradient id="uz-left" x1="54" y1="82" x2="128" y2="212" gradientUnits="userSpaceOnUse">
      <stop offset="0" stop-color="#EC9B3D"/><stop offset="1" stop-color="#D9633A"/>
    </linearGradient>
    <linearGradient id="uz-right" x1="128" y1="124" x2="202" y2="212" gradientUnits="userSpaceOnUse">
      <stop offset="0" stop-color="#D4513A"/><stop offset="1" stop-color="#A82E26"/>
    </linearGradient>
    <!-- Occlusion = the groove's PORTAL: the U-band opening on the front faces plus the two
         top-face openings where the cut emerges. The solid wedge between the openings (near
         vertex 4) is excluded, hiding the small triangle that projects up behind it. -->
    <clipPath id="frontfaces">
      <path d="M83.6 98.8 L83.6 151.3 L128.0 176.5 L172.4 151.3 L172.4 98.8 L157.6 107.2 L157.6 142.7 L128.0 159.5 L98.4 142.7 L98.4 107.2 Z"/>
      <path d="M98.4 107.2 L83.6 98.8 L91.0 94.6 L105.8 103.0 Z"/>
      <path d="M157.6 107.2 L172.4 98.8 L165.0 94.6 L150.2 103.0 Z"/>
    </clipPath>
  </defs>
  <!-- Isometric cube, faces shaded as a thermal heatmap. -->
  <path d="M128 40 L202 82 L128 124 L54 82 Z" fill="url(#uz-top)"/>
  <path d="M54 82 L128 124 L128 212 L54 170 Z" fill="url(#uz-left)"/>
  <path d="M202 82 L202 170 L128 212 L128 124 Z" fill="url(#uz-right)"/>

  <!-- U-shaped hole, flat-shaded per 3D face: recessed floor + walls (incl. top openings).
       Clipped to the front faces so the centre-joint sliver stays behind the top face. -->
  <g clip-path="url(#frontfaces)">
  <path d="M91.0 94.6 L91.0 147.1 L128.0 168.1 L128.0 151.1 L105.8 138.5 L105.8 103.0 Z" fill="#71461f"/>
  <path d="M128.0 168.1 L165.0 147.1 L165.0 94.6 L150.2 103.0 L150.2 138.5 L128.0 151.1 Z" fill="#4c1a14"/>
  <path d="M83.6 151.3 L128.0 176.5 L128.0 168.1 L91.0 147.1 Z" fill="#dc893c"/>
  <path d="M128.0 176.5 L172.4 151.3 L165.0 147.1 L128.0 168.1 Z" fill="#bb4030"/>
  <path d="M83.6 98.8 L83.6 151.3 L91.0 147.1 L91.0 94.6 Z" fill="#7f4f23"/>
  <path d="M172.4 151.3 L172.4 98.8 L165.0 94.6 L165.0 147.1 Z" fill="#892f23"/>
  <path d="M157.6 142.7 L128.0 159.5 L128.0 151.1 L150.2 138.5 Z" fill="#bb4030"/>
  <path d="M128.0 159.5 L98.4 142.7 L105.8 138.5 L128.0 151.1 Z" fill="#dc893c"/>
  <path d="M157.6 107.2 L157.6 142.7 L150.2 138.5 L150.2 103.0 Z" fill="#892f23"/>
  <path d="M98.4 142.7 L98.4 107.2 L105.8 103.0 L105.8 138.5 Z" fill="#7f4f23"/>
  <path d="M172.4 98.8 L157.6 107.2 L150.2 103.0 L165.0 94.6 Z" fill="#4c1a14"/>
  <path d="M98.4 107.2 L83.6 98.8 L91.0 94.6 L105.8 103.0 Z" fill="#71461f"/>
  </g>

</g>
  <!-- wordmark: "Uptimizr", Space Grotesk SemiBold, outlined -->
  <g transform="translate(124.26 90.00) scale(0.08571 -0.08571)">
    <path d="M335.300048828125 -14.0Q251.22491455078125 -14.0 190.599853515625 16.62506103515625Q129.97479248046875 47.2501220703125 97.56228637695312 104.96267700195312Q65.1497802734375 162.67523193359375 65.1497802734375 243.02520751953125V700.0H185.2506103515625V239.72515869140625Q185.2506103515625 170.47552490234375 224.02545166015625 131.98812866210938Q262.80029296875 93.500732421875 335.300048828125 93.500732421875Q407.7998046875 93.500732421875 446.57464599609375 131.98812866210938Q485.3494873046875 170.47552490234375 485.3494873046875 239.72515869140625V700.0H605.4503173828125V243.02520751953125Q605.4503173828125 162.67523193359375 573.1253051757812 104.96267700195312Q540.80029296875 47.2501220703125 480.0877380371094 16.62506103515625Q419.37518310546875 -14.0 335.300048828125 -14.0ZM744.1497802734375 -200.0V494.2501220703125H856.6005859375V429.17547607421875H873.5506591796875Q891.2506103515625 460.100341796875 928.7380065917969 484.17523193359375Q966.2254028320312 508.2501220703125 1035.500244140625 508.2501220703125Q1096.3751831054688 508.2501220703125 1147.7251586914062 478.57513427734375Q1199.0751342773438 448.900146484375 1230.1626281738281 392.07513427734375Q1261.2501220703125 335.2501220703125 1261.2501220703125 254.77508544921875V239.47503662109375Q1261.2501220703125 159.17498779296875 1230.2501220703125 102.26248168945312Q1199.2501220703125 45.3499755859375 1147.900146484375 15.67498779296875Q1096.5501708984375 -14.0 1035.500244140625 -14.0Q989.100341796875 -14.0 957.3754272460938 -2.800048828125Q925.6505126953125 8.39990234375 906.2755737304688 26.037322998046875Q886.900634765625 43.67474365234375 875.5506591796875 61.899658203125H858.6005859375V-200.0ZM1001.699951171875 86.20068359375Q1064.899658203125 86.20068359375 1105.6744995117188 126.41299438476562Q1146.4493408203125 166.62530517578125 1146.4493408203125 242.300048828125V251.9500732421875Q1146.4493408203125 327.62481689453125 1105.2619934082031 367.8371276855469Q1064.0746459960938 408.0494384765625 1001.699951171875 408.0494384765625Q939.500244140625 408.0494384765625 898.2254028320312 367.8371276855469Q856.9505615234375 327.62481689453125 856.9505615234375 251.9500732421875V242.300048828125Q856.9505615234375 166.62530517578125 898.2254028320312 126.41299438476562Q939.500244140625 86.20068359375 1001.699951171875 86.20068359375ZM1570.699951171875 0.0Q1523.4498291015625 0.0 1494.8746948242188 28.662628173828125Q1466.299560546875 57.32525634765625 1466.299560546875 105.700439453125V398.99951171875H1336.699951171875V494.2501220703125H1466.299560546875V653.1497802734375H1580.7503662109375V494.2501220703125H1722.699951171875V398.99951171875H1580.7503662109375V125.2506103515625Q1580.7503662109375 95.2506103515625 1609.100341796875 95.2506103515625H1708.2501220703125V0.0ZM1840.1497802734375 0.0V494.2501220703125H1954.6005859375V0.0ZM1897.3751831054688 556.7998046875Q1865.4750366210938 556.7998046875 1843.4624328613281 577.5748901367188Q1821.4498291015625 598.3499755859375 1821.4498291015625 631.900146484375Q1821.4498291015625 665.6253051757812 1843.4624328613281 686.3128967285156Q1865.4750366210938 707.00048828125 1897.3751831054688 707.00048828125Q1930.2753295898438 707.00048828125 1951.7879333496094 686.3128967285156Q1973.300537109375 665.6253051757812 1973.300537109375 631.900146484375Q1973.300537109375 598.3499755859375 1951.7879333496094 577.5748901367188Q1930.2753295898438 556.7998046875 1897.3751831054688 556.7998046875ZM2101.1497802734375 0.0V494.2501220703125H2213.6005859375V438.500244140625H2230.5506591796875Q2243.900634765625 463.8502197265625 2274.4255981445312 483.22515869140625Q2304.9505615234375 502.60009765625 2356.0504150390625 502.60009765625Q2410.100341796875 502.60009765625 2442.8877868652344 480.9626770019531Q2475.6752319335938 459.32525634765625 2492.500244140625 425.4503173828125H2509.4503173828125Q2526.4503173828125 458.500244140625 2558.3252563476562 480.5501708984375Q2590.2001953125 502.60009765625 2648.60009765625 502.60009765625Q2695.300048828125 502.60009765625 2732.7125549316406 482.92510986328125Q2770.1250610351562 463.2501220703125 2792.362579345703 424.27508544921875Q2814.60009765625 385.300048828125 2814.60009765625 327.22491455078125V0.0H2700.1492919921875V318.7498779296875Q2700.1492919921875 361.67474365234375 2677.3119201660156 384.099609375Q2654.4745483398438 406.52447509765625 2613.1497802734375 406.52447509765625Q2567.5249633789062 406.52447509765625 2541.3126525878906 377.27459716796875Q2515.100341796875 348.02471923828125 2515.100341796875 293.3499755859375V0.0H2400.6495361328125V318.7498779296875Q2400.6495361328125 361.67474365234375 2377.8121643066406 384.099609375Q2354.9747924804688 406.52447509765625 2313.6500244140625 406.52447509765625Q2268.0252075195312 406.52447509765625 2241.8128967285156 377.27459716796875Q2215.6005859375 348.02471923828125 2215.6005859375 293.3499755859375V0.0ZM2956.1497802734375 0.0V494.2501220703125H3070.6005859375V0.0ZM3013.3751831054688 556.7998046875Q2981.4750366210938 556.7998046875 2959.462432861328 577.5748901367188Q2937.4498291015625 598.3499755859375 2937.4498291015625 631.900146484375Q2937.4498291015625 665.6253051757812 2959.462432861328 686.3128967285156Q2981.4750366210938 707.00048828125 3013.3751831054688 707.00048828125Q3046.2753295898438 707.00048828125 3067.7879333496094 686.3128967285156Q3089.300537109375 665.6253051757812 3089.300537109375 631.900146484375Q3089.300537109375 598.3499755859375 3067.7879333496094 577.5748901367188Q3046.2753295898438 556.7998046875 3013.3751831054688 556.7998046875ZM3198.099853515625 0.0V138.100830078125L3479.7241821289062 384.0494384765625V398.99951171875H3208.099853515625V494.2501220703125H3604.2501220703125V356.1492919921875L3322.4508056640625 110.20068359375V95.2506103515625H3612.2501220703125V0.0ZM3736.1497802734375 0.0V494.2501220703125H3848.6005859375V437.37518310546875H3865.5506591796875Q3877.0756225585938 467.900146484375 3902.9255981445312 482.07513427734375Q3928.7755737304688 496.2501220703125 3965.400390625 496.2501220703125H4024.8754272460938V394.0494384765625H3962.5254516601562Q3913.300537109375 394.0494384765625 3881.9505615234375 367.5870056152344Q3850.6005859375 341.12457275390625 3850.6005859375 285.8497314453125V0.0Z" fill="#F4EADF"/>
  </g>
</svg>
